<?xml version="1.0" standalone="no"?><!DOCTYPE svg PUBLIC "-//W3C//DTD SVG 1.1//EN" "http://www.w3.org/Graphics/SVG/1.1/DTD/svg11.dtd"><svg t="1749266962126" class="icon" viewBox="0 0 1024 1024" version="1.1" xmlns="http://www.w3.org/2000/svg" p-id="4411" xmlns:xlink="http://www.w3.org/1999/xlink" width="200" height="200"><path d="M946.457671 508.460724v191.764431C945.722237 803.277853 886.335937 870.47814 784.202532 873.327947c-143.317713 3.67717-286.911213 3.125595-430.320855 0-82.736332-1.654727-149.752761-72.716043-150.580124-155.636233q-2.206302-205.737678 0-411.567286c0.643505-65.63749 29.233504-118.037167 90.090673-147.086812 25.556334-11.950803 32.17524-27.302989 32.17524-53.594758C327.314122 28.865787 358.386211 0.459646 435.882575 0h51.480384c69.498519 0.643505 101.122183 28.865787 102.409193 97.720801 0 33.554179 12.318521 43.29868 43.942185 42.1036 49.825658-1.746656 99.743244-1.103151 149.660831 0 96.893437 2.298231 161.703564 69.31466 162.990574 167.311249v201.325074zM573.776461 815.044798h196.268965c73.543406-0.459646 118.496813-38.42643 120.15154-112.521412q4.596463-198.383338 0-397.042463c-1.378939-64.35048-37.874854-103.236556-101.949547-104.983212-139.824401-3.952958-280.016519-4.872251-419.932849-1.195081-70.142024 1.838585-108.016878 44.126044-109.395816 114.543855q-3.67717 196.085106 0 392.354072c1.28701 68.487297 45.229195 107.649161 114.084209 108.660382 66.83257 0.827363 133.75707 0.091929 200.773498 0.183859zM460.795404 130.079899c9.192926 0 18.385852 0.551576 27.578777 0 20.316366-1.378939 46.700063 7.078553 45.964629-28.40614 0-29.325433-13.789389-47.435497-44.034115-48.630577-24.637041-0.919293-51.756172-5.331897-73.543406 3.125594-14.708681 5.699614-25.096687 29.968938-30.244726 47.987073-1.378939 4.780321 22.522668 19.672861 36.771703 25.096687 11.491157 4.136817 25.188617 0.735434 37.507138 0.827363z" p-id="4412"></path><path d="M387.251997 714.014543m-309.893527 0a309.893527 309.893527 0 1 0 619.787055 0 309.893527 309.893527 0 1 0-619.787055 0Z" fill="#2196F3" opacity=".52" p-id="4413"></path><path d="M460.795404 130.079899c-12.318521 0-26.01598 3.309453-36.771703-0.919292-14.157106-5.423826-38.058713-20.316366-36.771704-25.096687 5.148038-18.385852 15.536045-42.287458 30.244726-47.987073 21.603376-8.457492 48.722507-4.044887 73.543406-3.125595 30.244726 1.19508 43.666397 19.305144 44.034115 48.630578 0 35.484693-26.01598 27.027202-45.964629 28.40614-9.652572 0.643505-19.029356 0.091929-28.314211 0.091929z" fill="#FFFFFF" p-id="4414"></path><path d="M531.948649 318.902594c-32.17524 39.529581-34.105755 78.691444-2.574019 97.996589 35.760481 21.879163 71.061316 1.746656 88.252087-43.758327 25.004758 63.890834 4.596463 105.259-51.664243 126.035013a99.743244 99.743244 0 0 0-46.97585 36.771703c-25.740192 40.540803-45.964629 84.391058-69.774307 126.310799-12.318521 22.063022-25.096687 44.769548-57.639644 26.291768-30.152796-17.098842-31.623665-37.966783-14.616752-65.453631s32.542957-56.536493 48.26286-85.126493c20.959871-38.242571 48.26286-71.888679 25.280546-123.369063-15.260257-34.381542 24.361253-78.599515 81.449322-95.698358zM707.533531 514.160338v-125.943083c0-30.428584 18.385852-51.388455 44.769548-46.700063 16.639196 2.849807 40.81659 28.49807 41.643954 44.861478 4.136817 86.873148 4.136817 174.205943 0 261.079091-0.827363 16.455337-26.567555 31.807523-40.90852 47.619355-15.076398-16.731125-40.448873-31.899452-43.29868-50.561091-6.710836-42.563246-2.206302-86.781219-2.206302-130.355687z" p-id="4415"></path></svg>