<?xml version="1.0" standalone="no"?><!DOCTYPE svg PUBLIC "-//W3C//DTD SVG 1.1//EN" "http://www.w3.org/Graphics/SVG/1.1/DTD/svg11.dtd"><svg t="1749278060373" class="icon" viewBox="0 0 1024 1024" version="1.1" xmlns="http://www.w3.org/2000/svg" p-id="3431" xmlns:xlink="http://www.w3.org/1999/xlink" width="200" height="200"><path d="M982.429 472.395h-34.632v-34.631c0-8.693-7.047-15.742-15.742-15.742H662.343V253.059c0-8.694-7.046-15.742-15.741-15.742h-34.633v-51.424c0-17.939-14.593-32.534-32.533-32.534h-235.08c-17.938 0-32.533 14.594-32.533 32.534v51.424h-34.632c-8.696 0-15.743 7.048-15.743 15.742v168.963h-85.005c-8.696 0-15.742 7.048-15.742 15.742v34.631h-35.683V219.476c0-8.694-7.046-15.743-15.741-15.743H42.111c-8.697 0-15.742 7.049-15.742 15.743V756.8c0 8.695 7.045 15.741 15.742 15.741h671.656c8.695 0 15.741-7.046 15.741-15.741V571.047h186.806V756.8c0 8.695 7.045 15.741 15.741 15.741 8.695 0 15.742-7.046 15.742-15.741V571.047h34.632c8.696 0 15.741-7.05 15.741-15.745v-67.165c0-8.693-7.045-15.742-15.741-15.742zM93.535 741.058H57.852v-505.84h35.683v505.84z m249.771-555.165c0-0.579 0.472-1.05 1.049-1.05h235.08c0.577 0 1.049 0.471 1.049 1.05v118.589h-69.316c0.023-0.348 0.053-0.694 0.053-1.05 0-27.197-22.126-49.324-49.324-49.324-27.199 0-49.325 22.127-49.325 49.324 0 0.356 0.029 0.702 0.053 1.05h-69.318V185.893z m178.551 150.073c-11.702 21.463-34.526 35.681-59.96 35.681-25.435 0-48.26-14.218-59.96-35.681h119.92z m-77.854-31.484c0.023-0.348 0.053-0.694 0.053-1.05 0-9.837 8.003-17.84 17.841-17.84s17.841 8.003 17.841 17.84c0 0.356 0.028 0.702 0.051 1.05h-35.786zM292.933 268.8h18.89v51.423c0 8.694 7.046 15.743 15.742 15.743h40.068c13.678 39.591 51.447 67.166 94.264 67.166 42.814 0 80.585-27.574 94.261-67.166h40.068c8.697 0 15.743-7.049 15.743-15.743V268.8h18.891v153.222H292.933V268.8zM192.184 453.505h724.129v18.89H192.184v-18.89z m102.847 287.553H125.018V571.047h170.013v170.011z m201.497 0H326.515V571.047h170.013v170.011z m31.484 0V571.047h170.014v170.011H528.012z m438.676-201.497h-841.67v-35.68h841.669v35.68z" p-id="3432" fill="#ffffff"></path></svg>